# xmcd
#
# Track frame offsets:
#	150
#	18332
#	34461
#	46252
#	59847
#	77806
#	91085
#	106671
#	118595
#	134544
#	149070
#	165577
#	178570
#	191225
#	204163
#	218439
#	229175
#	240814
#	258507
#	269222
#	296482
#
# Disc length: 4440 seconds
#
# Revision: 1
# Processed by: cddbd v1.5.1PL2 Copyright (c) Steve Scherf et al.
# Submitted via: audiograbber 1.83.01
#
DISCID=33115615
DTITLE=Various Artist - The Most Awesome Line Dancing Album 10
DYEAR=1900
DGENRE=
TTITLE0=Chris Cagle - Chicks Dig It
TTITLE1=Shane Worley - Souped Up Purple Truck
TTITLE2=Robbert Mizzel - Them Old Hank Williams Songs
TTITLE3=George Ducas - Long Trail Of Tears
TTITLE4=John Berry - Standing On The Edge Of Goodbye
TTITLE5=Lee Kernaghan - Working For The Man
TTITLE6=Tanya Tucker - You Don`t Do It
TTITLE7=Emillio - I`d Love You To Love Me
TTITLE8=Charlie Daniels - All Night Long
TTITLE9=Ricky Lynn Gregg - Dog House Blues
TTITLE10=Jennifer Hanson - Half A Heart Tattoo
TTITLE11=Dr. Hook - When You`re In Love With A Beautiful Woman
TTITLE12=Wild Rose - Straight and Narrow
TTITLE13=Billy Dean - Gone But Not Forgotten
TTITLE14=Gina Jeffreys - Getting Used To Getting Over You
TTITLE15=Shenandoah - Can`t Buy Me Love
TTITLE16=Chris LeDoux and Garth Brooks - Whatcha Gonna Do With A Cowboy
TTITLE17=Mindy McCreedy - Lovin Your Man
TTITLE18=Lacy J Dalton - Bye Bye Love
TTITLE19=Suzy Bogguss - Somewhere Between
TTITLE20=Data - Data Track
EXTD=
EXTT0=
EXTT1=
EXTT2=
EXTT3=
EXTT4=
EXTT5=
EXTT6=
EXTT7=
EXTT8=
EXTT9=
EXTT10=
EXTT11=
EXTT12=
EXTT13=
EXTT14=
EXTT15=
EXTT16=
EXTT17=
EXTT18=
EXTT19=
EXTT20=
PLAYORDER=
